<svg width="472" height="266" viewBox="0 0 472 266" fill="none" xmlns="http://www.w3.org/2000/svg">
<g clip-path="url(#clip0_41_7)">
<g clip-path="url(#clip1_41_7)">
<path d="M156.65 129.606V88.5632L235.454 8.66618L313.71 86.9222V130.153" stroke="#D1AB53" stroke-width="11.424" stroke-miterlimit="22.93" stroke-linecap="round"/>
<path d="M174.452 129.449V97.2588L236.259 34.5935L297.637 95.9714V129.878" stroke="#D1AB53" stroke-width="11.424" stroke-miterlimit="22.93" stroke-linecap="round"/>
<path d="M8.24951 104.486L91.9781 105.033L180.084 30.6089L189.387 38.8167" stroke="#D1AB53" stroke-width="11.424" stroke-miterlimit="22.93" stroke-linecap="round"/>
<path d="M125.706 76.6144L125.604 46.562" stroke="#D1AB53" stroke-width="11.424" stroke-miterlimit="22.93" stroke-linecap="round"/>
<path d="M465.077 102.689L380.709 103.236L291.932 28.8112L282.558 37.0194" stroke="#D1AB53" stroke-width="11.41" stroke-miterlimit="22.93" stroke-linecap="round"/>
<path d="M346.895 74.8179L346.998 44.765" stroke="#D1AB53" stroke-width="11.41" stroke-miterlimit="22.93" stroke-linecap="round"/>
<path d="M62.0839 218.46C64.9597 218.46 67.5999 218.352 70.0026 218.144C72.4053 217.926 74.5098 217.686 76.3153 217.413C78.4068 217.107 80.3115 216.758 82.0428 216.355L80.9841 221.527C80.6855 221.505 80.2497 221.494 79.6642 221.472C79.0794 221.451 78.4317 221.429 77.7098 221.407C76.9998 221.385 76.2403 221.363 75.456 221.353C74.659 221.342 73.9122 221.331 73.215 221.32C72.5052 221.309 71.8828 221.298 71.3349 221.287C70.7871 221.276 70.3883 221.276 70.1519 221.276H54.3892V221.145C54.5385 220.698 54.6758 220.141 54.8126 219.487C54.9374 218.821 55.0617 218.003 55.1489 217.02C55.2483 216.038 55.3231 214.881 55.3732 213.528C55.4226 212.164 55.4474 210.582 55.4474 208.77V187.96C55.4474 186.149 55.4226 184.567 55.3732 183.213C55.3231 181.86 55.2483 180.693 55.1489 179.7C55.0617 178.707 54.9374 177.877 54.8126 177.222C54.6758 176.557 54.5385 176.011 54.3892 175.553V175.433H63.1421V175.553C62.9929 176.011 62.8561 176.557 62.7188 177.222C62.5945 177.877 62.4821 178.707 62.3954 179.7C62.3078 180.693 62.2332 181.86 62.1714 183.213C62.1213 184.567 62.0839 186.149 62.0839 187.96V218.46Z" fill="#D1AB53"/>
<path d="M126.269 187.958C126.269 186.146 126.244 184.564 126.194 183.211C126.144 181.858 126.07 180.69 125.97 179.697C125.883 178.704 125.771 177.875 125.646 177.22C125.522 176.554 125.397 176.008 125.248 175.55V175.43H131.735V175.55C131.598 176.008 131.448 176.554 131.324 177.22C131.187 177.875 131.075 178.704 130.988 179.697C130.9 180.69 130.838 181.858 130.776 183.211C130.714 184.564 130.676 186.146 130.676 187.958V205.221C130.676 208.277 130.178 210.874 129.182 213.024C128.186 215.174 126.804 216.941 125.024 218.316C123.256 219.691 121.126 220.695 118.649 221.317C116.159 221.95 113.457 222.267 110.506 222.267C107.568 222.267 104.828 221.961 102.289 221.372C99.7361 220.772 97.5325 219.811 95.6399 218.48C93.7597 217.149 92.2781 215.414 91.2074 213.296C90.1363 211.18 89.6013 208.593 89.6013 205.549V187.958C89.6013 186.146 89.5894 184.564 89.5391 183.211C89.489 181.858 89.4144 180.69 89.3149 179.697C89.215 178.704 89.1034 177.875 88.9661 177.22C88.8293 176.554 88.6924 176.008 88.5552 175.55V175.43H97.3086V175.55C97.1588 176.008 97.0219 176.554 96.8848 177.22C96.748 177.875 96.636 178.704 96.5364 179.697C96.4365 180.69 96.3623 181.858 96.3245 183.211C96.2748 184.564 96.2499 186.146 96.2499 187.958V205.898C96.2499 208.43 96.6732 210.525 97.5449 212.173C98.4041 213.831 99.537 215.141 100.956 216.112C102.363 217.083 103.969 217.76 105.762 218.142C107.568 218.524 109.398 218.72 111.278 218.72C113.146 218.72 114.988 218.524 116.781 218.142C118.587 217.76 120.18 217.083 121.575 216.112C122.982 215.141 124.115 213.831 124.974 212.173C125.833 210.525 126.269 208.43 126.269 205.898V187.958Z" fill="#D1AB53"/>
<path d="M161.491 201.219L148.58 215.569C148.094 216.082 147.621 216.617 147.16 217.152C146.7 217.697 146.289 218.232 145.915 218.745C145.554 219.247 145.255 219.727 145.031 220.164C144.795 220.6 144.683 220.971 144.683 221.266H137.598V221.135C138.108 220.731 138.868 220.12 139.864 219.28C140.86 218.45 141.918 217.402 143.039 216.148L159.088 198.469L142.603 179.482C141.707 178.456 140.81 177.605 139.939 176.907C139.067 176.219 138.407 175.76 137.972 175.542V175.422H149.389C149.389 175.673 149.426 176.001 149.514 176.415C149.601 176.819 149.763 177.288 149.999 177.834C150.248 178.379 150.584 178.98 151.008 179.646C151.431 180.3 151.991 181.009 152.663 181.784L163.209 193.897L174.851 181.14C175.287 180.671 175.71 180.158 176.146 179.613C176.569 179.056 176.943 178.521 177.266 177.998C177.602 177.474 177.864 176.983 178.076 176.535C178.275 176.088 178.387 175.717 178.387 175.422H185.459V175.542C185.223 175.717 184.948 175.924 184.662 176.153C184.363 176.393 184.027 176.677 183.653 177.015C183.28 177.365 182.856 177.768 182.396 178.238C181.935 178.707 181.413 179.253 180.827 179.896L165.613 196.713L182.62 216.213C183.778 217.534 184.873 218.625 185.882 219.487C186.891 220.349 187.625 220.906 188.086 221.135V221.266H176.743C176.743 220.774 176.507 219.967 176.046 218.832C175.586 217.708 174.726 216.399 173.457 214.904L161.491 201.219Z" fill="#D1AB53"/>
<path d="M220.013 175.43V175.55C219.964 175.659 219.926 175.823 219.901 176.041C219.876 176.249 219.864 176.445 219.864 176.609C219.864 177.274 219.964 178.005 220.175 178.802C220.374 179.599 220.773 180.592 221.358 181.792L237.519 213.733L253.132 182.043C253.494 181.258 253.88 180.395 254.303 179.457C254.714 178.518 254.913 177.569 254.913 176.609C254.913 176.358 254.888 176.139 254.851 175.954C254.801 175.779 254.751 175.638 254.701 175.55V175.43H262.172V175.55C261.711 175.965 261.151 176.685 260.503 177.733C259.843 178.769 259.121 180.068 258.349 181.596L237.444 222.267H234.531L214.722 183.167C214.261 182.251 213.775 181.366 213.277 180.515C212.779 179.653 212.306 178.89 211.87 178.191C211.435 177.504 211.049 176.925 210.713 176.456C210.364 175.987 210.14 175.681 210.015 175.55V175.43H220.013Z" fill="#D1AB53"/>
<path d="M266.342 221.135C266.491 220.687 266.628 220.131 266.753 219.476C266.865 218.81 266.976 217.992 267.076 217.01C267.176 216.028 267.25 214.871 267.287 213.518C267.338 212.154 267.362 210.571 267.362 208.76V187.95C267.362 186.138 267.338 184.556 267.287 183.203C267.25 181.85 267.176 180.682 267.076 179.689C266.976 178.696 266.865 177.867 266.753 177.212C266.628 176.546 266.491 176.001 266.342 175.542V175.422H275.07V175.542C274.92 176.001 274.783 176.546 274.646 177.212C274.509 177.867 274.397 178.696 274.31 179.689C274.235 180.682 274.161 181.85 274.098 183.203C274.036 184.556 274.011 186.138 274.011 187.95V208.76C274.011 210.571 274.036 212.154 274.098 213.518C274.161 214.871 274.235 216.028 274.31 217.01C274.397 217.992 274.509 218.81 274.646 219.476C274.783 220.131 274.92 220.687 275.07 221.135V221.266H266.342V221.135Z" fill="#D1AB53"/>
<path d="M293.591 218.46C296.466 218.46 299.106 218.352 301.509 218.144C303.912 217.926 306.017 217.686 307.822 217.413C309.914 217.107 311.818 216.758 313.55 216.355L312.491 221.527C312.192 221.505 311.756 221.494 311.171 221.472C310.586 221.451 309.939 221.429 309.216 221.407C308.507 221.385 307.747 221.363 306.963 221.353C306.166 221.342 305.419 221.331 304.722 221.32C304.012 221.309 303.389 221.298 302.841 221.287C302.294 221.276 301.895 221.276 301.659 221.276H285.896V221.145C286.045 220.698 286.182 220.141 286.319 219.487C286.444 218.821 286.568 218.003 286.656 217.02C286.755 216.038 286.83 214.881 286.88 213.528C286.929 212.164 286.954 210.582 286.954 208.77V187.96C286.954 186.149 286.929 184.567 286.88 183.213C286.83 181.86 286.755 180.693 286.656 179.7C286.568 178.707 286.444 177.877 286.319 177.222C286.182 176.557 286.045 176.011 285.896 175.553V175.433H294.649V175.553C294.5 176.011 294.363 176.557 294.226 177.222C294.101 177.877 293.989 178.707 293.902 179.7C293.815 180.693 293.74 181.86 293.678 183.213C293.628 184.567 293.591 186.149 293.591 187.96V218.46Z" fill="#D1AB53"/>
<path d="M328.047 218.46C330.923 218.46 333.563 218.352 335.966 218.144C338.369 217.926 340.474 217.686 342.279 217.413C344.371 217.107 346.275 216.758 348.006 216.355L346.947 221.527C346.649 221.505 346.213 221.494 345.628 221.472C345.043 221.451 344.396 221.429 343.673 221.407C342.964 221.385 342.204 221.363 341.42 221.353C340.623 221.342 339.876 221.331 339.179 221.32C338.469 221.309 337.847 221.298 337.298 221.287C336.751 221.276 336.352 221.276 336.115 221.276H320.353V221.145C320.502 220.698 320.64 220.141 320.776 219.487C320.901 218.821 321.025 218.003 321.113 217.02C321.212 216.038 321.287 214.881 321.337 213.528C321.386 212.164 321.411 210.582 321.411 208.77V187.96C321.411 186.149 321.386 184.567 321.337 183.213C321.287 181.86 321.212 180.693 321.113 179.7C321.025 178.707 320.901 177.877 320.776 177.222C320.64 176.557 320.502 176.011 320.353 175.553V175.433H329.106V175.553C328.956 176.011 328.819 176.557 328.683 177.222C328.558 177.877 328.446 178.707 328.359 179.7C328.272 180.693 328.197 181.86 328.135 183.213C328.085 184.567 328.047 186.149 328.047 187.96V218.46Z" fill="#D1AB53"/>
<path d="M390.964 221.278V221.147C391.014 221.049 391.052 220.885 391.077 220.667C391.101 220.459 391.114 220.263 391.114 220.099C391.114 219.433 391.014 218.702 390.802 217.906C390.591 217.109 390.205 216.105 389.619 214.916L385.2 206.219C383.843 206.175 382.025 206.153 379.771 206.153C377.505 206.153 375.064 206.153 372.438 206.153C370.52 206.153 368.665 206.153 366.872 206.153C365.091 206.153 363.473 206.175 362.041 206.219L357.845 214.665C357.484 215.45 357.098 216.313 356.675 217.251C356.264 218.19 356.065 219.139 356.065 220.099C356.065 220.372 356.077 220.601 356.127 220.787C356.177 220.961 356.227 221.081 356.276 221.147V221.278H348.831V221.147C349.279 220.743 349.827 220.023 350.474 218.997C351.134 217.96 351.856 216.662 352.628 215.112L373.533 174.474H376.446L396.256 213.541C396.717 214.457 397.202 215.352 397.7 216.215C398.198 217.076 398.659 217.84 399.107 218.528C399.543 219.204 399.929 219.783 400.265 220.252C400.613 220.721 400.838 221.027 400.962 221.147V221.278H390.964ZM367.333 203.403C368.74 203.403 370.184 203.403 371.666 203.392C373.16 203.382 374.604 203.37 376.036 203.36C377.455 203.349 378.825 203.338 380.132 203.327C381.452 203.316 382.635 203.294 383.705 203.283L373.458 182.975L363.386 203.403L367.333 203.403Z" fill="#D1AB53"/>
<path d="M62.0862 218.46C64.9671 218.46 67.6117 218.352 70.018 218.144C72.425 217.926 74.5327 217.686 76.3411 217.413C78.4364 217.107 80.3442 216.758 82.078 216.355L81.0177 221.527C80.7187 221.505 80.2821 221.494 79.6957 221.472C79.1102 221.451 78.4613 221.429 77.738 221.407C77.0269 221.385 76.266 221.363 75.4806 221.353C74.6822 221.342 73.9342 221.331 73.2357 221.32C72.5248 221.309 71.9013 221.298 71.3529 221.287C70.804 221.276 70.4046 221.276 70.1676 221.276H54.3789V221.145C54.5285 220.698 54.6659 220.141 54.8028 219.487C54.9278 218.821 55.0529 218.003 55.1398 217.02C55.2394 216.038 55.3143 214.881 55.3648 213.528C55.4139 212.164 55.4388 210.582 55.4388 208.77V187.96C55.4388 186.149 55.4139 184.567 55.3648 183.213C55.3143 181.86 55.2394 180.693 55.1398 179.7C55.0529 178.707 54.9278 177.877 54.8028 177.222C54.6659 176.557 54.5285 176.011 54.3789 175.553V175.433H63.1466V175.553C62.9967 176.011 62.8596 176.557 62.7222 177.222C62.5977 177.877 62.4852 178.707 62.3983 179.7C62.3107 180.693 62.2358 181.86 62.1742 183.213C62.1238 184.567 62.0862 186.149 62.0862 187.96V218.46Z" stroke="#D1AB53" stroke-width="0.924189" stroke-miterlimit="22.93" stroke-linecap="round"/>
<path d="M126.323 187.958C126.323 186.146 126.298 184.564 126.248 183.211C126.198 181.858 126.123 180.69 126.024 179.697C125.936 178.704 125.824 177.875 125.699 177.22C125.574 176.554 125.449 176.008 125.3 175.55V175.43H131.797V175.55C131.661 176.008 131.511 176.554 131.386 177.22C131.249 177.875 131.137 178.704 131.049 179.697C130.962 180.69 130.9 181.858 130.837 183.211C130.775 184.564 130.738 186.146 130.738 187.958V205.221C130.738 208.277 130.239 210.874 129.241 213.024C128.243 215.174 126.859 216.941 125.076 218.316C123.305 219.691 121.172 220.695 118.69 221.317C116.196 221.95 113.49 222.267 110.534 222.267C107.591 222.267 104.847 221.961 102.303 221.372C99.7461 220.772 97.5388 219.811 95.6431 218.48C93.7598 217.149 92.2758 215.414 91.2034 213.296C90.1306 211.18 89.5945 208.593 89.5945 205.549V187.958C89.5945 186.146 89.5824 184.564 89.5325 183.211C89.482 181.858 89.4076 180.69 89.3075 179.697C89.2077 178.704 89.0957 177.875 88.9582 177.22C88.8211 176.554 88.6842 176.008 88.5466 175.55V175.43H97.3144V175.55C97.1649 176.008 97.0275 176.554 96.8899 177.22C96.753 177.875 96.6409 178.704 96.5414 179.697C96.4411 180.69 96.3669 181.858 96.329 183.211C96.279 184.564 96.2541 186.146 96.2541 187.958V205.898C96.2541 208.43 96.6785 210.525 97.5514 212.173C98.4117 213.831 99.5467 215.141 100.968 216.112C102.378 217.083 103.987 217.76 105.782 218.142C107.591 218.524 109.424 218.72 111.307 218.72C113.178 218.72 115.023 218.524 116.82 218.142C118.628 217.76 120.224 217.083 121.621 216.112C123.03 215.141 124.166 213.831 125.026 212.173C125.886 210.525 126.323 208.43 126.323 205.898V187.958Z" stroke="#D1AB53" stroke-width="0.924189" stroke-miterlimit="22.93" stroke-linecap="round"/>
<path d="M161.542 201.229L148.609 215.579C148.122 216.092 147.648 216.627 147.187 217.162C146.725 217.707 146.314 218.242 145.94 218.755C145.578 219.257 145.279 219.737 145.054 220.174C144.818 220.61 144.705 220.981 144.705 221.276H137.609V221.145C138.12 220.741 138.881 220.13 139.879 219.29C140.876 218.46 141.936 217.412 143.059 216.158L159.134 198.479L142.622 179.492C141.725 178.466 140.826 177.615 139.954 176.917C139.081 176.229 138.42 175.77 137.984 175.552V175.432H149.419C149.419 175.683 149.457 176.011 149.544 176.425C149.632 176.829 149.794 177.298 150.031 177.844C150.28 178.389 150.617 178.99 151.041 179.656C151.464 180.31 152.026 181.019 152.699 181.794L163.263 193.907L174.924 181.15C175.36 180.681 175.784 180.168 176.22 179.623C176.645 179.066 177.019 178.531 177.343 178.008C177.68 177.484 177.941 176.993 178.154 176.545C178.353 176.098 178.465 175.727 178.465 175.432H185.549V175.552C185.313 175.727 185.038 175.934 184.751 176.163C184.452 176.403 184.115 176.687 183.741 177.025C183.367 177.375 182.942 177.778 182.481 178.248C182.019 178.717 181.496 179.263 180.909 179.907L165.67 196.723L182.706 216.223C183.865 217.544 184.963 218.635 185.973 219.497C186.983 220.359 187.719 220.916 188.18 221.145V221.276H176.819C176.819 220.784 176.582 219.977 176.12 218.842C175.659 217.718 174.799 216.409 173.527 214.914L161.542 201.229Z" stroke="#D1AB53" stroke-width="0.924189" stroke-miterlimit="22.93" stroke-linecap="round"/>
<path d="M220.022 175.43V175.55C219.973 175.659 219.935 175.823 219.91 176.041C219.885 176.249 219.872 176.445 219.872 176.609C219.872 177.274 219.973 178.005 220.185 178.802C220.384 179.599 220.783 180.592 221.369 181.792L237.557 213.733L253.196 182.043C253.558 181.258 253.945 180.395 254.369 179.457C254.78 178.518 254.979 177.569 254.979 176.609C254.979 176.358 254.955 176.139 254.917 175.954C254.868 175.779 254.817 175.638 254.768 175.55V175.43H262.25V175.55C261.789 175.965 261.228 176.685 260.579 177.733C259.918 178.769 259.195 180.068 258.422 181.596L237.482 222.267H234.564L214.722 183.167C214.26 182.251 213.775 181.366 213.275 180.515C212.776 179.653 212.302 178.89 211.866 178.191C211.43 177.504 211.043 176.925 210.706 176.456C210.357 175.987 210.132 175.681 210.008 175.55V175.43H220.022Z" stroke="#D1AB53" stroke-width="0.924189" stroke-miterlimit="22.93" stroke-linecap="round"/>
<path d="M266.354 221.145C266.504 220.697 266.641 220.141 266.766 219.486C266.878 218.82 266.99 218.002 267.09 217.02C267.19 216.038 267.265 214.881 267.302 213.528C267.352 212.164 267.377 210.582 267.377 208.77V187.96C267.377 186.148 267.352 184.566 267.302 183.213C267.265 181.86 267.19 180.692 267.09 179.699C266.99 178.706 266.878 177.877 266.766 177.222C266.641 176.556 266.504 176.011 266.354 175.552V175.432H275.097V175.552C274.948 176.011 274.81 176.556 274.673 177.222C274.535 177.877 274.423 178.706 274.336 179.699C274.261 180.692 274.186 181.86 274.124 183.213C274.062 184.566 274.037 186.148 274.037 187.96V208.77C274.037 210.582 274.062 212.164 274.124 213.528C274.186 214.881 274.261 216.038 274.336 217.02C274.423 218.002 274.535 218.82 274.673 219.486C274.81 220.141 274.948 220.697 275.097 221.145V221.276H266.354V221.145Z" stroke="#D1AB53" stroke-width="0.924189" stroke-miterlimit="22.93" stroke-linecap="round"/>
<path d="M293.603 218.46C296.484 218.46 299.128 218.352 301.535 218.144C303.941 217.926 306.049 217.686 307.858 217.413C309.953 217.107 311.861 216.758 313.595 216.355L312.535 221.527C312.235 221.505 311.799 221.494 311.212 221.472C310.626 221.451 309.978 221.429 309.255 221.407C308.543 221.385 307.783 221.363 306.997 221.353C306.199 221.342 305.451 221.331 304.753 221.32C304.041 221.309 303.418 221.298 302.869 221.287C302.321 221.276 301.921 221.276 301.685 221.276H285.895V221.145C286.045 220.698 286.182 220.141 286.32 219.487C286.445 218.821 286.569 218.003 286.656 217.02C286.756 216.038 286.831 214.881 286.881 213.528C286.931 212.164 286.955 210.582 286.955 208.77V187.96C286.955 186.149 286.931 184.567 286.881 183.213C286.831 181.86 286.756 180.693 286.656 179.7C286.569 178.707 286.445 177.877 286.32 177.222C286.182 176.557 286.045 176.011 285.895 175.553V175.433H294.663V175.553C294.514 176.011 294.377 176.557 294.239 177.222C294.114 177.877 294.002 178.707 293.915 179.7C293.827 180.693 293.753 181.86 293.69 183.213C293.64 184.567 293.603 186.149 293.603 187.96V218.46Z" stroke="#D1AB53" stroke-width="0.924189" stroke-miterlimit="22.93" stroke-linecap="round"/>
<path d="M328.046 218.46C330.927 218.46 333.571 218.352 335.978 218.144C338.384 217.926 340.493 217.686 342.301 217.413C344.396 217.107 346.304 216.758 348.037 216.355L346.977 221.527C346.679 221.505 346.242 221.494 345.655 221.472C345.069 221.451 344.421 221.429 343.697 221.407C342.987 221.385 342.226 221.363 341.44 221.353C340.642 221.342 339.894 221.331 339.195 221.32C338.485 221.309 337.861 221.298 337.312 221.287C336.764 221.276 336.364 221.276 336.127 221.276H320.338V221.145C320.488 220.698 320.626 220.141 320.763 219.487C320.887 218.821 321.012 218.003 321.099 217.02C321.199 216.038 321.274 214.881 321.324 213.528C321.373 212.164 321.399 210.582 321.399 208.77V187.96C321.399 186.149 321.373 184.567 321.324 183.213C321.274 181.86 321.199 180.693 321.099 179.7C321.012 178.707 320.887 177.877 320.763 177.222C320.626 176.557 320.488 176.011 320.338 175.553V175.433H329.106V175.553C328.956 176.011 328.819 176.557 328.682 177.222C328.557 177.877 328.445 178.707 328.358 179.7C328.27 180.693 328.195 181.86 328.133 183.213C328.084 184.567 328.046 186.149 328.046 187.96V218.46Z" stroke="#D1AB53" stroke-width="0.924189" stroke-miterlimit="22.93" stroke-linecap="round"/>
<path d="M391.031 221.278V221.147C391.081 221.049 391.118 220.885 391.143 220.667C391.168 220.459 391.18 220.263 391.18 220.099C391.18 219.433 391.081 218.702 390.869 217.906C390.657 217.109 390.27 216.105 389.684 214.916L385.257 206.219C383.897 206.175 382.076 206.153 379.819 206.153C377.549 206.153 375.104 206.153 372.474 206.153C370.552 206.153 368.694 206.153 366.899 206.153C365.115 206.153 363.494 206.175 362.06 206.219L357.856 214.665C357.495 215.45 357.109 216.313 356.685 217.251C356.273 218.19 356.073 219.139 356.073 220.099C356.073 220.372 356.085 220.601 356.135 220.787C356.186 220.961 356.235 221.081 356.285 221.147V221.278H348.827V221.147C349.276 220.743 349.825 220.023 350.473 218.997C351.135 217.96 351.858 216.662 352.631 215.112L373.571 174.474H376.489L396.331 213.541C396.792 214.457 397.279 215.352 397.778 216.215C398.276 217.076 398.738 217.84 399.187 218.528C399.623 219.204 400.01 219.783 400.347 220.252C400.696 220.721 400.921 221.027 401.046 221.147V221.278H391.031ZM367.361 203.403C368.769 203.403 370.216 203.403 371.7 203.392C373.197 203.382 374.643 203.37 376.077 203.36C377.499 203.349 378.871 203.338 380.18 203.327C381.503 203.316 382.687 203.294 383.76 203.283L373.496 182.975L363.406 203.403L367.361 203.403Z" stroke="#D1AB53" stroke-width="0.924189" stroke-miterlimit="22.93" stroke-linecap="round"/>
<path d="M93.0703 252.621H104.626C105.525 252.621 106.329 252.48 107.029 252.192C107.729 251.904 108.27 251.502 108.651 250.973C109.025 250.445 109.216 249.843 109.216 249.157C109.216 248.472 109.025 247.865 108.651 247.341C108.27 246.813 107.729 246.405 107.036 246.122C106.352 245.834 105.541 245.693 104.626 245.693H93.0703V242.716H104.444C106.4 242.716 108.118 242.983 109.605 243.516C111.085 244.045 112.239 244.798 113.05 245.777C113.869 246.75 114.274 247.88 114.274 249.157C114.274 250.434 113.861 251.559 113.042 252.538C112.214 253.511 111.061 254.264 109.582 254.798C108.094 255.327 106.384 255.594 104.444 255.594H93.0703V252.621ZM90.9941 242.716H95.7503V265.023H90.9941V242.716ZM102.296 254.903L107.029 254.202L115.698 265.023H110.059L102.296 254.903Z" fill="white"/>
<path d="M122.165 242.728H126.921V265.02H122.165V242.728ZM124.471 262.048H143.934V265.02H124.471V262.048ZM124.471 252.466H141.365V255.439H124.471V252.466ZM124.471 242.728H143.934V245.705H124.471V242.728Z" fill="white"/>
<path d="M160.003 242.728H164.051L176.546 265.02H171.416L162.023 247.035L152.638 265.02H147.507L160.003 242.728ZM153.266 257.155H171.09V260.127H153.266V257.155Z" fill="white"/>
<path d="M181.741 242.728H186.497V265.02H181.741V242.728ZM184.12 262.048H203.51V265.02H184.12V262.048Z" fill="white"/>
<path d="M221.991 242.728H226.747V265.02H221.991V242.728ZM224.297 262.048H243.76V265.02H224.297V262.048ZM224.297 252.466H241.191V255.439H224.297V252.466ZM224.297 242.728H243.76V245.705H224.297V242.728Z" fill="white"/>
<path d="M260.777 265.25C259.147 265.25 257.596 265.146 256.14 264.942C254.677 264.737 253.317 264.434 252.045 264.026C250.78 263.612 249.595 263.105 248.497 262.493L251.456 260.101C252.744 260.834 254.168 261.388 255.719 261.755C257.27 262.121 258.956 262.304 260.777 262.304C263.227 262.304 265.128 262.006 266.48 261.41C267.833 260.813 268.509 259.965 268.509 258.871V258.856C268.509 258.081 268.206 257.464 267.594 257.008C266.973 256.553 266.186 256.219 265.215 255.999C264.245 255.779 262.989 255.575 261.454 255.391C261.406 255.381 261.35 255.376 261.302 255.376C261.247 255.376 261.191 255.371 261.144 255.36L260.801 255.318C258.526 255.062 256.682 254.774 255.265 254.45C253.842 254.125 252.625 253.539 251.615 252.686C250.605 251.833 250.104 250.619 250.104 249.044V249.028C250.104 247.652 250.573 246.475 251.512 245.496C252.45 244.523 253.826 243.775 255.624 243.267C257.429 242.754 259.592 242.498 262.13 242.498C263.339 242.498 264.532 242.587 265.701 242.759C266.878 242.932 268.031 243.194 269.177 243.534C270.314 243.874 271.436 244.308 272.541 244.831L269.837 247.312C268.548 246.689 267.268 246.223 265.979 245.91C264.699 245.601 263.419 245.444 262.13 245.444C259.816 245.444 258.01 245.747 256.729 246.354C255.449 246.961 254.812 247.825 254.812 248.939V248.955C254.812 249.719 255.138 250.321 255.799 250.761C256.459 251.2 257.286 251.524 258.272 251.734C259.258 251.943 260.627 252.163 262.384 252.388C262.448 252.398 262.503 252.404 262.559 252.409C262.615 252.414 262.671 252.424 262.734 252.435C262.806 252.445 262.893 252.456 262.989 252.466C263.085 252.477 263.163 252.482 263.243 252.493C265.295 252.77 267.005 253.1 268.382 253.476C269.757 253.853 270.911 254.465 271.833 255.308C272.756 256.15 273.217 257.302 273.217 258.767V258.798C273.217 260.153 272.732 261.315 271.753 262.283C270.768 263.252 269.351 263.984 267.499 264.492C265.637 264.999 263.402 265.25 260.777 265.25Z" fill="white"/>
<path d="M284.972 244.554H289.721V265.02H284.972V244.554ZM275.388 242.728H299.297V245.705H275.388V242.728Z" fill="white"/>
<path d="M311.157 242.728H315.205L327.7 265.02H322.57L313.176 247.035L303.791 265.02H298.661L311.157 242.728ZM304.419 257.155H322.244V260.127H304.419V257.155Z" fill="white"/>
<path d="M336.873 244.554H341.621V265.02H336.873V244.554ZM327.289 242.728H351.198V245.705H327.289V242.728Z" fill="white"/>
<path d="M355.924 242.728H360.68V265.02H355.924V242.728ZM358.23 262.048H377.693V265.02H358.23V262.048ZM358.23 252.466H375.124V255.439H358.23V252.466ZM358.23 242.728H377.693V245.705H358.23V242.728Z" fill="white"/>
<path d="M6.08081 253.878L78.6071 254.731" stroke="#D1AB53" stroke-width="5.705" stroke-miterlimit="22.93" stroke-linecap="round"/>
<path d="M391.821 256.226L464.348 257.08" stroke="#D1AB53" stroke-width="5.705" stroke-miterlimit="22.93" stroke-linecap="round"/>
<path fill-rule="evenodd" clip-rule="evenodd" d="M222.195 85.8675H233.972V97.6438H222.195V85.8675Z" fill="white"/>
<path fill-rule="evenodd" clip-rule="evenodd" d="M237.234 85.8675H249.01V97.6438H237.234V85.8675Z" fill="white"/>
<path fill-rule="evenodd" clip-rule="evenodd" d="M222.195 100.756H233.972V112.532H222.195V100.756Z" fill="white"/>
<path fill-rule="evenodd" clip-rule="evenodd" d="M237.234 100.756H249.01V112.532H237.234V100.756Z" fill="white"/>
<path fill-rule="evenodd" clip-rule="evenodd" d="M202.058 153.794C207.103 152.711 210.947 151.632 215.798 149.967C216.869 149.599 217.854 149.438 218.894 149.049C219.625 148.732 221.06 148.625 222.035 148.329C224.687 147.742 225.842 148.168 228.123 147.898C230.551 147.611 226.019 147.455 225.948 147.454C224.788 147.44 223.594 147.45 222.434 147.494C221.448 147.57 220.615 147.677 219.659 147.918C215.226 149.133 210.661 150.318 206.205 151.479C200.964 152.845 196.351 153.629 190.89 152.555C186.257 151.543 180.646 148.777 181.53 143.576C182.341 139.88 185.934 138.985 189.556 139.53C191.272 139.788 193.29 140.72 194.33 142.024C195.131 143.029 194.905 146.573 192.925 146.996C191.426 147.317 192.583 145.117 190.523 144.528C188.068 143.825 186.721 148.223 191.738 148.547C195.963 148.819 197.723 143.674 195.575 140.948C193.398 138.183 188.213 136.622 184.763 137.858L184.306 138.022C180.801 139.387 178.891 142.369 179.375 145.856C179.471 146.545 179.818 146.956 179.284 147.08C178.93 147.161 178.13 145.831 177.875 145.508C177.476 145.007 174.75 141.718 174.311 143.702C173.964 145.27 177.004 147.448 178.531 147.931C180.999 148.709 179.978 147.881 182.083 150.044C186.596 154.681 194.169 155.142 200.418 154.112C200.971 154.017 201.51 153.909 202.058 153.794Z" fill="#D1AB53"/>
<path fill-rule="evenodd" clip-rule="evenodd" d="M285.117 150.75C275.832 156.67 260.17 149.664 250.429 147.694C249.451 147.496 248.606 147.382 247.607 147.308C245.852 147.208 240.162 146.901 239.641 148.984C239.501 149.545 241.002 148.653 241.348 148.545C245.744 147.272 249.725 148.682 253.94 149.859C259.316 151.359 263.316 152.848 268.941 153.765C270.708 154.052 270.552 154.396 272.697 154.443C277.43 154.434 279.366 154.517 283.931 152.942C286.912 151.848 287.828 150.664 289.768 148.449C291.235 146.773 290.335 148.93 291.949 148.255C296.688 146.274 297.408 141.63 294.088 144.109C293.323 144.682 291.57 147.236 291.319 147.3C290.626 147.479 290.933 145.735 290.956 145.43C291.174 142.498 290.772 141.013 288.222 139.166C286.921 138.225 284.911 137.612 283.265 137.537C279.372 137.797 274.361 139.586 274.071 143.78C274.053 146.424 276.378 148.486 279.185 148.373C280.581 148.229 282.364 147.705 282.341 146.115C282.329 145.236 281.718 144.821 280.872 144.613C278.802 144.284 278.829 146.768 278.485 147.127C277.561 148.091 273.494 144.397 277.008 141.29L277.329 141.007C278.335 140.205 279.399 139.812 280.681 139.546L281.097 139.474C284.33 139.033 287.101 139.307 288.825 142.089C290.094 144.135 289.292 147.153 287.622 148.817C286.881 149.555 285.995 150.159 285.117 150.75Z" fill="#D1AB53"/>
<path fill-rule="evenodd" clip-rule="evenodd" d="M220.496 152.219C221.869 151.858 220.188 150.975 219.59 150.888C215.463 150.714 208.38 154.997 203.932 156.319C200.866 157.229 198.951 157.234 195.886 157.627C195.07 157.732 194.59 157.932 193.851 158.238C196.668 159.823 200.051 159.014 203.135 158.429C208.272 157.456 211.404 155.563 215.987 153.662C217.479 153.043 218.93 152.637 220.496 152.219Z" fill="#D1AB53"/>
<path fill-rule="evenodd" clip-rule="evenodd" d="M241.935 143.984C242.082 143.011 240.362 142.341 239.284 142.727C236.23 143.805 238.126 143.066 236.833 141.103L236.418 140.549C236.051 140.135 235.702 139.895 235.242 139.581C234.275 140.158 234.097 140.753 233.513 141.623C233.202 142.23 233.303 142.939 233.019 143.707C232.014 142.919 231.666 142.445 230.215 142.642C228.835 142.83 226.896 144.655 230.627 145.104C232.956 145.384 232.554 146.144 233.352 146.83C233.675 147.109 235.514 148.117 237.547 146.887C239.267 145.845 237.692 145.343 240.792 144.968C241.582 144.873 241.771 144.685 241.935 143.984Z" fill="#D1AB53"/>
<path fill-rule="evenodd" clip-rule="evenodd" d="M276.309 158.448C277.134 158.142 273.724 157.808 273.633 157.794C266.666 156.721 264.574 155.624 258.398 152.832C256.878 152.145 250.46 149.214 249.453 151.552L249.363 151.841C249.299 152.14 249.545 152.086 250.064 152.265C252.699 153.132 253.533 153.066 256.185 154.416C258.461 155.574 265.027 157.889 267.756 158.395C270.43 158.892 273.689 159.314 276.309 158.448Z" fill="#D1AB53"/>
<path fill-rule="evenodd" clip-rule="evenodd" d="M272.549 156.808C276.579 157.684 280.775 156.713 284.518 155.315C285.43 154.974 285.135 155.056 286.031 154.594C287.1 154.044 288.859 153.567 289.277 152.409C287.967 152.326 285.386 153.562 283.926 154.003C279.646 155.259 274.884 155.806 270.491 154.729C267.552 154.008 267.783 155.307 270.565 156.277C271.219 156.505 271.872 156.657 272.549 156.808Z" fill="#D1AB53"/>
<path fill-rule="evenodd" clip-rule="evenodd" d="M200.519 155.919C200.819 155.802 202.045 155.299 201.903 154.896C200.53 154.753 197.595 155.29 195.805 155.319C190.105 155.363 188.085 154.24 183.032 152.404C179.297 151.046 181.403 152.974 183.12 154.004C188.067 156.971 194.975 157.962 200.519 155.919Z" fill="#D1AB53"/>
<path fill-rule="evenodd" clip-rule="evenodd" d="M170.564 149.377C171.921 149.518 173.164 149.342 174.599 149.452C175.558 149.529 175.826 149.58 176.76 149.287C176.482 148.077 176.08 148.162 174.882 147.712C173.973 147.349 171.515 146.928 170.509 146.914C168.316 147.095 166.821 148.641 169.826 149.232L170.564 149.377Z" fill="#D1AB53"/>
<path fill-rule="evenodd" clip-rule="evenodd" d="M302.376 147.775C301.676 147.209 300.4 146.868 299.473 147.009C298.369 147.175 293.451 147.894 293.663 149.288C293.756 149.907 294.918 149.682 295.387 149.664C296.413 149.626 297.43 149.529 298.454 149.473C299.355 149.443 302.928 149.161 302.376 147.775Z" fill="#D1AB53"/>
<path fill-rule="evenodd" clip-rule="evenodd" d="M237.351 149.6C238.085 149.337 237.889 149.112 237.8 148.521C237.721 147.994 235.055 148.131 233.804 148.194C232.984 148.236 232.486 148.341 232.599 149.239C232.706 150.087 233.372 149.121 234.402 150.41C235.593 151.897 235.828 150.141 236.616 149.822C236.902 149.706 237.034 149.687 237.351 149.6Z" fill="#D1AB53"/>
<path fill-rule="evenodd" clip-rule="evenodd" d="M293.904 152.174C294.523 152.67 297.06 154.62 297.454 152.942C297.45 151.579 295.733 150.458 294.402 150.171C293.658 150.011 293.281 150.072 293.019 150.713C292.905 151.298 293.485 151.816 293.904 152.174Z" fill="#D1AB53"/>
<path fill-rule="evenodd" clip-rule="evenodd" d="M173.237 153.058C173.469 153.8 174.535 153.718 175.159 153.392C175.759 153.034 178.801 150.947 177.088 150.352C175.9 149.939 173.192 151.299 173.183 152.69L173.237 153.058Z" fill="#D1AB53"/>
<path d="M8.59277 147.889L145.826 148.742" stroke="#D1AB53" stroke-width="2.27825" stroke-miterlimit="22.93" stroke-linecap="round"/>
<path d="M320.296 147.888L464.934 148.741" stroke="#D1AB53" stroke-width="2.27175" stroke-miterlimit="22.93" stroke-linecap="round"/>
</g>
</g>
<defs>
<clipPath id="clip0_41_7">
<rect width="472" height="266" fill="white"/>
</clipPath>
<clipPath id="clip1_41_7">
<rect width="1080" height="1080" fill="white" transform="translate(-294 -403)"/>
</clipPath>
</defs>
</svg>
